<svg width="40" height="40" viewBox="0 0 40 40" fill="none" xmlns="http://www.w3.org/2000/svg">
<path opacity="0.4" d="M28.68 0H11.34C4.56 0 0 4.76 0 11.84V28.18C0 35.24 4.56 40 11.34 40H28.68C35.46 40 40 35.24 40 28.18V11.84C40 4.76 35.46 0 28.68 0Z" fill="#200E32"/>
<path d="M19.9894 16.9746C20.9534 16.9746 21.7394 17.7606 21.7394 18.7246V27.5646C21.7394 28.5286 20.9534 29.3146 19.9894 29.3146C19.0254 29.3146 18.2394 28.5286 18.2394 27.5646V18.7246C18.2394 17.7606 19.0254 16.9746 19.9894 16.9746ZM20.0094 10.629C20.9754 10.629 21.7594 11.415 21.7594 12.379C21.7594 13.343 20.9754 14.129 19.9894 14.129C19.0314 14.129 18.2494 13.343 18.2494 12.379C18.2494 11.415 19.0394 10.629 20.0094 10.629Z" fill="#200E32"/>
</svg>
