<svg width="48" height="48" viewBox="0 0 48 48" fill="none" xmlns="http://www.w3.org/2000/svg">
<path opacity="0.4" d="M9.4454 42.3346C9.4194 42.3346 9.3954 42.3346 9.3674 42.3326C8.7374 42.3006 8.1194 42.1646 7.5314 41.9266C4.6374 40.7506 3.2414 37.4446 4.4154 34.5526L19.0574 8.9006C19.5614 7.9886 20.3254 7.2246 21.2574 6.7086C23.9874 5.1966 27.4394 6.1906 28.9494 8.9186L43.4954 34.3746C43.8194 35.1366 43.9574 35.7566 43.9914 36.3886C44.0694 37.9006 43.5534 39.3506 42.5414 40.4726C41.5294 41.5946 40.1394 42.2566 38.6294 42.3326L9.5894 42.3346H9.4454Z" fill="#200E32"/>
<path d="M23.999 30.7798C24.963 30.7798 25.749 31.5598 25.749 32.5178C25.749 33.5038 24.963 34.2898 23.999 34.2898C23.035 34.2898 22.249 33.5038 22.249 32.5398C22.249 31.5698 23.035 30.7798 23.999 30.7798ZM23.999 18.2916C24.963 18.2916 25.749 19.0776 25.749 20.0416V25.6976C25.749 26.6636 24.963 27.4476 23.999 27.4476C23.035 27.4476 22.249 26.6636 22.249 25.6976V20.0416C22.249 19.0776 23.035 18.2916 23.999 18.2916Z" fill="#200E32"/>
</svg>
