<svg width="92" height="91" viewBox="0 0 92 91" fill="none" xmlns="http://www.w3.org/2000/svg">
<path d="M46 0C71.3533 0 92 20.4124 92 45.5263C92 70.5876 71.3533 91 46 91C20.6467 91 0 70.5876 0 45.5263C0 20.4124 20.6467 0 46 0ZM40.7606 27.4361C39.7838 27.4361 38.8513 27.6556 37.9633 28.0946C36.8533 28.7091 35.9652 29.6749 35.4768 30.8162C35.166 31.6064 34.6776 33.9768 34.6776 34.0207C34.1892 36.6107 33.9228 40.8249 33.9228 45.4781C33.9228 49.9161 34.1892 53.9503 34.5888 56.5842C34.6332 56.6281 35.1216 59.5692 35.6544 60.5789C36.6313 62.4226 38.5405 63.5639 40.583 63.5639H40.7606C42.0927 63.52 44.89 62.3787 44.89 62.3348C49.5965 60.4033 58.8764 54.3893 62.6062 50.3946L62.8726 50.1312C63.361 49.6483 63.9826 48.9021 64.1158 48.7265C64.8263 47.8046 65.1815 46.6633 65.1815 45.5263C65.1815 44.2489 64.7819 43.0637 64.027 42.0979C63.8494 41.9223 63.1834 41.1761 62.5618 40.5615C58.9208 36.6985 49.4189 30.3772 44.4459 28.4457C43.6911 28.1428 41.7819 27.48 40.7606 27.4361Z" fill="white"/>
</svg>
