<?xml version="1.0" encoding="iso-8859-1"?>
<!-- Generator: Adobe Illustrator 16.0.0, SVG Export Plug-In . SVG Version: 6.00 Build 0)  -->
<!DOCTYPE svg PUBLIC "-//W3C//DTD SVG 1.1//EN" "http://www.w3.org/Graphics/SVG/1.1/DTD/svg11.dtd">
<svg version="1.1" id="Capa_1" xmlns="http://www.w3.org/2000/svg" xmlns:xlink="http://www.w3.org/1999/xlink" x="0px" y="0px"
	 width="612px" height="612px" viewBox="0 0 612 612" style="enable-background:new 0 0 612 612;" xml:space="preserve">
<g>
	<g id="_x35__19_">
		<g>
			<path d="M535.5,153.093h-40.162L293.875,40.638c-9.142-5.068-20.846-2.065-26.125,6.713s-2.142,20.005,7,25.073l145.521,80.65
				H76.5c-42.247,0-76.5,34.253-76.5,76.5v267.75c0,42.247,34.253,76.5,76.5,76.5h459c42.247,0,76.5-34.253,76.5-76.5v-267.75
				C612,187.346,577.747,153.093,535.5,153.093z M210.375,459.093H95.625c-10.557,0-19.125-8.568-19.125-19.125
				s8.568-19.125,19.125-19.125h114.75c10.557,0,19.125,8.568,19.125,19.125S220.932,459.093,210.375,459.093z M210.375,382.593
				H95.625c-10.557,0-19.125-8.568-19.125-19.125s8.568-19.125,19.125-19.125h114.75c10.557,0,19.125,8.568,19.125,19.125
				S220.932,382.593,210.375,382.593z M210.375,306.093H95.625c-10.557,0-19.125-8.568-19.125-19.125
				c0-10.557,8.568-19.125,19.125-19.125h114.75c10.557,0,19.125,8.568,19.125,19.125
				C229.5,297.525,220.932,306.093,210.375,306.093z M401.625,478.218c-63.38,0-114.75-51.369-114.75-114.75
				c0-63.38,51.37-114.75,114.75-114.75s114.75,51.389,114.75,114.75C516.375,426.849,465.005,478.218,401.625,478.218z
				 M401.625,286.968c-42.247,0-76.5,34.253-76.5,76.5s34.253,76.5,76.5,76.5s76.5-34.253,76.5-76.5
				S443.872,286.968,401.625,286.968z"/>
		</g>
	</g>
</g>
<g>
</g>
<g>
</g>
<g>
</g>
<g>
</g>
<g>
</g>
<g>
</g>
<g>
</g>
<g>
</g>
<g>
</g>
<g>
</g>
<g>
</g>
<g>
</g>
<g>
</g>
<g>
</g>
<g>
</g>
</svg>
