<svg width="48" height="48" viewBox="0 0 48 48" fill="none" xmlns="http://www.w3.org/2000/svg">
<path opacity="0.4" d="M24.1731 44C23.9254 44 23.6778 43.9431 23.4543 43.8274L16.2521 40.0992C14.2084 39.0402 12.6097 37.8517 11.3614 36.4671C8.62909 33.4391 7.10892 29.552 7.08476 25.5198L7.00011 12.2485C6.99012 10.7168 7.97874 9.34206 9.45663 8.82431L22.6811 4.21358C23.4664 3.93313 24.3422 3.92921 25.1416 4.19985L38.4164 8.65368C39.9023 9.14986 40.9071 10.5148 40.9151 12.0446L40.9997 25.3257C41.0259 29.352 39.558 33.2547 36.868 36.3161C35.6338 37.7203 34.0492 38.9264 32.0256 40.0051L24.8879 43.8176C24.6664 43.9372 24.4208 43.998 24.1731 44Z" fill="#200E32"/>
<path d="M22.6384 28.6418C22.2518 28.6438 21.8652 28.5045 21.5672 28.2182L17.7336 24.5312C17.1416 23.9585 17.1356 23.0289 17.7215 22.4523C18.3074 21.8738 19.2638 21.8679 19.8578 22.4386L22.6162 25.0901L29.3513 18.4496C29.9392 17.871 30.8956 17.8651 31.4876 18.4358C32.0816 19.0085 32.0876 19.9401 31.5017 20.5147L23.7035 28.2045C23.4096 28.4947 23.025 28.6398 22.6384 28.6418Z" fill="#200E32"/>
</svg>
